Coordinates
version=1
nRows=5
nColumns=40
inDegrees=yes

Units are S.I. units (second, meters, Newtons, ...)
If the header above contains a line with 'inDegrees', this indicates whether rotational values are in degrees (yes) or radians (no).

endheader
time	pelvis_tilt	pelvis_list	pelvis_rotation	pelvis_tx	pelvis_ty	pelvis_tz	hip_flexion_r	hip_adduction_r	hip_rotation_r	knee_angle_r	knee_angle_r_beta	ankle_angle_r	subtalar_angle_r	mtp_angle_r	hip_flexion_l	hip_adduction_l	hip_rotation_l	knee_angle_l	knee_angle_l_beta	ankle_angle_l	subtalar_angle_l	mtp_angle_l	lumbar_extension	lumbar_bending	lumbar_rotation	arm_flex_r	arm_add_r	arm_rot_r	elbow_flex_r	pro_sup_r	wrist_flex_r	wrist_dev_r	arm_flex_l	arm_add_l	arm_rot_l	elbow_flex_l	pro_sup_l	wrist_flex_l	wrist_dev_l
      0.52000000	     -3.25969687	     -8.36076215	     89.79897997	      0.16614519	      0.89548179	      0.12186190	     38.94305782	     -2.22235055	     -4.51977208	      4.09248681	      0.07142737	      3.65267655	      0.00000000	      0.00000000	    -14.80030862	      5.83998387	      3.42279107	     -4.28101553	     -0.07471782	      5.01097242	      0.00000000	      0.00000000	     -0.64999706	     -2.95273141	     -8.28016961	      0.00000000	      0.00000000	      0.00000000	      0.00000000	      0.00000000	      0.00000000	      0.00000000	      0.00000000	      0.00000000	      0.00000000	      0.00000000	      0.00000000	      0.00000000	      0.00000000
      0.53000000	     -3.27162719	     -8.63177847	     89.82315041	      0.16721334	      0.89148756	      0.10148149	     39.51796603	     -2.00073369	     -4.54911317	      3.59273126	      0.06270499	      4.08570036	      0.00000000	      0.00000000	    -15.63378657	      5.71337601	      3.38268524	     -3.72195163	     -0.06496031	      5.09848168	      0.00000000	      0.00000000	     -0.22369133	     -2.95377012	     -8.48569136	      0.00000000	      0.00000000	      0.00000000	      0.00000000	      0.00000000	      0.00000000	      0.00000000	      0.00000000	      0.00000000	      0.00000000	      0.00000000	      0.00000000	      0.00000000	      0.00000000
      0.54000000	     -3.32533097	     -8.88055795	     89.82380937	      0.16829882	      0.88793060	      0.08107184	     40.09978840	     -1.83762690	     -4.39650619	      3.79404996	      0.06621866	      3.98027694	      0.00000000	     -0.00000000	    -16.35764995	      5.62261432	      3.23870159	     -3.00503401	     -0.05244774	      4.95551448	     -0.00000000	     -0.00000000	      0.17343127	     -3.02740889	     -8.31501360	      0.00000000	      0.00000000	     -0.00000000	      0.00000000	      0.00000000	     -0.00000000	      0.00000000	      0.00000000	     -0.00000000	      0.00000000	      0.00000000	      0.00000000	     -0.00000000	     -0.00000000
      0.55000000	     -2.81594506	     -8.93561753	     89.84863990	      0.16973706	      0.88533854	      0.06039819	     40.11146148	     -1.12869600	     -4.55861152	      3.97651523	      0.06940328	      3.90819231	     -0.00000000	     -0.00000000	    -16.61694538	      4.93512633	      2.47414864	     -1.02849468	     -0.01795062	      4.51648492	     -0.00000000	      0.00000000	      0.33415586	     -2.42637729	     -8.47006739	      0.00000000	     -0.00000000	     -0.00000000	      0.00000000	      0.00000000	     -0.00000000	      0.00000000	      0.00000000	      0.00000000	     -0.00000000	      0.00000000	      0.00000000	     -0.00000000	     -0.00000000
      0.56000000	     -2.51036921	     -9.07278319	     89.85446065	      0.17107640	      0.88309961	      0.03974595	     40.30331983	     -0.65782702	     -4.72022743	      4.82628301	      0.08423453	      3.28423295	     -0.00000000	      0.00000000	    -16.69576381	      4.42971479	      1.77099207	      0.97714347	      0.01705437	      3.66273705	      0.00000000	     -0.00000000	      0.59980509	     -2.06906465	     -8.41848568	      0.00000000	      0.00000000	     -0.00000000	      0.00000000	      0.00000000	      0.00000000	      0.00000000	     -0.00000000	      0.00000000	      0.00000000	      0.00000000	      0.00000000	      0.00000000	     -0.00000000
